<svg width="26" height="29" viewBox="0 0 26 29" fill="none" xmlns="http://www.w3.org/2000/svg">
<ellipse cx="13.2315" cy="14.7661" rx="12.7685" ry="14" fill="#660808"/>
<path fill-rule="evenodd" clip-rule="evenodd" d="M13.7904 7.99268C10.5153 7.99268 7.88049 10.8816 7.88049 14.4726C7.88049 17.3345 9.57959 19.7645 11.9189 20.6285C12.2144 20.6825 12.3129 20.4935 12.3129 20.3045C12.3129 20.1425 12.3129 19.7375 12.3129 19.1975C10.6631 19.6025 10.3183 18.3335 10.3183 18.3335C10.0475 17.5775 9.65346 17.3885 9.65346 17.3885C9.11172 16.9835 9.70271 16.9835 9.70271 16.9835C10.2937 17.0375 10.6138 17.6585 10.6138 17.6585C11.1309 18.6575 11.9928 18.3605 12.3375 18.1985C12.3868 17.7665 12.5345 17.4965 12.7069 17.3345C11.4018 17.1725 10.0228 16.6055 10.0228 14.1216C10.0228 13.4196 10.2445 12.8256 10.6384 12.3936C10.5892 12.2316 10.3676 11.5836 10.6877 10.6656C10.6877 10.6656 11.1802 10.5036 12.3129 11.3406C12.7808 11.2056 13.2979 11.1246 13.7904 11.1246C14.2829 11.1246 14.8 11.2056 15.2679 11.3406C16.4006 10.5036 16.8931 10.6656 16.8931 10.6656C17.2132 11.5566 17.0162 12.2046 16.9423 12.3936C17.3117 12.8526 17.558 13.4196 17.558 14.1216C17.558 16.6055 16.179 17.1455 14.8493 17.3075C15.0709 17.4965 15.2432 17.9015 15.2432 18.4955C15.2432 19.3595 15.2432 20.0615 15.2432 20.2775C15.2432 20.4395 15.3417 20.6555 15.6619 20.6015C18.0012 19.7645 19.7003 17.3345 19.7003 14.4726C19.7003 10.8816 17.0655 7.99268 13.7904 7.99268Z" fill="#EBEBEB"/>
</svg>
