<svg width="27" height="29" viewBox="0 0 27 29" fill="none" xmlns="http://www.w3.org/2000/svg">
<ellipse cx="13.7529" cy="14.7661" rx="12.7685" ry="14" fill="#660808"/>
<path d="M13.7499 9.21332C15.3995 9.21332 15.5949 9.2201 16.2465 9.25268C16.6384 9.25793 17.0264 9.33682 17.3939 9.4859C17.6604 9.59859 17.9025 9.77122 18.1044 9.99268C18.3064 10.2141 18.4639 10.4795 18.5666 10.7717C18.7026 11.1746 18.7746 11.6002 18.7794 12.0298C18.8088 12.7443 18.8152 12.9585 18.8152 14.7672C18.8152 16.5759 18.8091 16.7901 18.7794 17.5046C18.7746 17.9342 18.7026 18.3597 18.5666 18.7627C18.4639 19.0549 18.3064 19.3203 18.1044 19.5417C17.9025 19.7632 17.6604 19.9358 17.3939 20.0485C17.0264 20.1976 16.6384 20.2764 16.2465 20.2817C15.5952 20.314 15.3998 20.3211 13.7499 20.3211C12.1 20.3211 11.9047 20.3143 11.2533 20.2817C10.8615 20.2764 10.4734 20.1976 10.1059 20.0485C9.83938 19.9358 9.59735 19.7632 9.39537 19.5417C9.1934 19.3203 9.03596 19.0549 8.93318 18.7627C8.79721 18.3597 8.72526 17.9342 8.72047 17.5046C8.69105 16.7901 8.68457 16.5759 8.68457 14.7672C8.68457 12.9585 8.69075 12.7443 8.72047 12.0298C8.72526 11.6002 8.79721 11.1746 8.93318 10.7717C9.03596 10.4795 9.1934 10.2141 9.39537 9.99268C9.59735 9.77122 9.83938 9.59859 10.1059 9.4859C10.4734 9.33682 10.8615 9.25793 11.2533 9.25268C11.9049 9.22042 12.1003 9.21332 13.7499 9.21332ZM13.7499 7.99268C12.0729 7.99268 11.8617 8.00042 11.2027 8.03332C10.6899 8.0445 10.1825 8.15096 9.70223 8.34816C9.29019 8.51837 8.91699 8.78512 8.60867 9.12977C8.29405 9.46796 8.05056 9.87738 7.89522 10.3294C7.71537 10.8561 7.61828 11.4124 7.60808 11.9746C7.57866 12.6965 7.57159 12.9282 7.57159 14.7669C7.57159 16.6056 7.57866 16.8372 7.60866 17.5598C7.61886 18.122 7.71596 18.6783 7.89581 19.2049C8.05098 19.6569 8.29426 20.0664 8.60867 20.4046C8.91716 20.7493 9.29057 21.0161 9.70282 21.1862C10.1831 21.3834 10.6905 21.4899 11.2033 21.5011C11.8623 21.5333 12.0726 21.5417 13.7505 21.5417C15.4284 21.5417 15.6387 21.534 16.2977 21.5011C16.8105 21.4899 17.3179 21.3834 17.7982 21.1862C18.2085 21.0118 18.5811 20.7455 18.8921 20.4042C19.2032 20.063 19.4458 19.6543 19.6046 19.2043C19.7845 18.6776 19.8815 18.1214 19.8917 17.5591C19.9212 16.8372 19.9282 16.6056 19.9282 14.7669C19.9282 12.9282 19.9212 12.6965 19.8912 11.974C19.881 11.4117 19.7839 10.8554 19.604 10.3288C19.4488 9.8768 19.2056 9.46738 18.8912 9.12913C18.5827 8.78439 18.2092 8.51765 17.797 8.34751C17.3167 8.15031 16.8093 8.04386 16.2966 8.03268C15.6381 8.00042 15.4269 7.99268 13.7499 7.99268Z" fill="#EBEBEB"/>
<path d="M13.7512 11.2896C13.1237 11.2896 12.5103 11.4936 11.9885 11.8758C11.4668 12.2581 11.0601 12.8014 10.82 13.437C10.5798 14.0727 10.517 14.7721 10.6394 15.4469C10.7618 16.1217 11.064 16.7416 11.5077 17.2281C11.9514 17.7146 12.5168 18.0459 13.1322 18.1801C13.7477 18.3144 14.3856 18.2455 14.9653 17.9822C15.5451 17.7189 16.0406 17.273 16.3892 16.7009C16.7378 16.1289 16.9239 15.4563 16.9239 14.7683C16.9239 13.8456 16.5896 12.9608 15.9946 12.3084C15.3996 11.6561 14.5926 11.2896 13.7512 11.2896ZM13.7512 17.0263C13.3439 17.0263 12.9457 16.8939 12.607 16.6458C12.2683 16.3977 12.0044 16.045 11.8485 15.6324C11.6926 15.2198 11.6518 14.7658 11.7313 14.3277C11.8108 13.8897 12.0069 13.4874 12.2949 13.1716C12.5829 12.8558 12.9499 12.6407 13.3494 12.5536C13.7489 12.4665 14.163 12.5112 14.5393 12.6821C14.9156 12.853 15.2372 13.1424 15.4635 13.5137C15.6898 13.8851 15.8106 14.3217 15.8106 14.7683C15.8106 15.3671 15.5936 15.9415 15.2074 16.365C14.8212 16.7884 14.2974 17.0263 13.7512 17.0263Z" fill="#EBEBEB"/>
<path d="M17.0486 11.9642C17.4581 11.9642 17.79 11.6002 17.79 11.1513C17.79 10.7023 17.4581 10.3384 17.0486 10.3384C16.6391 10.3384 16.3072 10.7023 16.3072 11.1513C16.3072 11.6002 16.6391 11.9642 17.0486 11.9642Z" fill="#EBEBEB"/>
</svg>
