<svg width="26" height="29" viewBox="0 0 26 29" fill="none" xmlns="http://www.w3.org/2000/svg">
<ellipse cx="12.7879" cy="14.7661" rx="12.7685" ry="14" fill="#660808"/>
<path d="M18.4502 11.7492C18.068 11.9354 17.6646 12.0518 17.24 12.1217C17.6646 11.8423 18.0043 11.4 18.1529 10.8646C17.7495 11.1207 17.3037 11.3069 16.8153 11.4233C16.4332 10.981 15.8812 10.7017 15.2867 10.7017C14.1402 10.7017 13.206 11.7259 13.206 12.983C13.206 13.1692 13.2273 13.3322 13.2697 13.4951C11.55 13.402 10.0001 12.4941 8.95976 11.0974C8.78991 11.4466 8.68375 11.8191 8.68375 12.2381C8.68375 13.0296 9.04468 13.7279 9.61793 14.147C9.27823 14.1237 8.95976 14.0306 8.66252 13.8676V13.8909C8.66252 15.0083 9.38438 15.9394 10.3398 16.1489C10.1699 16.1955 9.97886 16.2188 9.78778 16.2188C9.66039 16.2188 9.51177 16.1955 9.38438 16.1722C9.66039 17.0801 10.4247 17.7552 11.3377 17.7552C10.6158 18.3605 9.72409 18.7329 8.74745 18.7329C8.57759 18.7329 8.40774 18.7329 8.25912 18.7096C9.1933 19.3615 10.2761 19.7339 11.4651 19.7339C15.3079 19.7339 17.4098 16.2421 17.4098 13.2158C17.4098 13.1227 17.4098 13.0063 17.4098 12.9132C17.8132 12.6105 18.1742 12.2148 18.4502 11.7492Z" fill="#EBEBEB"/>
</svg>
